<svg class="_logo_8c8ft_140 row-start" width="258" height="88" viewBox="0 0 258 88" fill="none"
	xmlns="http://www.w3.org/2000/svg">
	<path
		d="M83.342 27.3784H88.4388C91.1773 32.4235 94.1556 37.8967 96.9051 42.9381C96.9383 42.9972 96.9826 43.0489 97.0786 43.1817C97.3148 42.7684 97.5399 42.3956 97.7466 42.0155C100.035 37.8131 102.321 33.6094 104.604 29.4046C104.917 28.8251 105.571 27.467 105.571 27.467C105.571 27.467 110.719 27.4338 110.782 27.467V54.4086H105.615V38.2252L105.497 38.1846C105.301 38.5204 105.102 38.8526 104.914 39.1884C103.116 42.4879 99.5292 49.4594 99.5292 49.4594H94.6981C94.6981 49.4594 90.8082 42.0782 88.8558 38.5168C88.8027 38.412 88.7116 38.3315 88.6012 38.2916V54.4382H83.342V27.3784Z"
		fill="#EA5F00"></path>
	<path
		d="M161.701 54.4632V27.3851C161.89 27.3851 161.517 27.3851 161.701 27.3851C165.067 27.3851 168.994 27.3851 172.36 27.3851C174.076 27.3276 175.778 27.7086 177.305 28.4922C181.49 30.8026 181.9 36.3164 179.103 39.4793C179.021 39.5715 178.948 39.6638 178.841 39.793C179.21 40.0698 179.549 40.3134 179.87 40.5975C181.867 42.358 182.579 44.6129 182.424 47.2111C182.247 50.1636 180.007 53.19 175.91 54.0241C174.573 54.2922 173.214 54.4367 171.851 54.4558C168.588 54.5149 164.949 54.4558 161.687 54.4558C161.594 54.4632 161.864 54.4632 161.701 54.4632ZM166.957 49.1598C167.141 49.1598 167.259 49.1856 167.378 49.1856C169.16 49.1856 170.939 49.1856 172.718 49.1561C173.398 49.1459 174.076 49.078 174.744 48.9531C176.958 48.5213 177.519 47.034 177.051 45.1776C176.733 43.908 175.667 43.3655 174.489 43.2954C172.109 43.1514 169.717 43.1515 167.333 43.0887C167.079 43.0887 166.964 43.1699 166.964 43.4578C166.96 45.3252 166.957 47.2074 166.957 49.1524V49.1598ZM166.997 32.6516V37.8406C168.883 37.8406 170.732 37.8406 172.578 37.8406C172.994 37.827 173.408 37.7651 173.81 37.6561C174.302 37.5561 174.745 37.2948 175.071 36.9136C175.397 36.5324 175.586 36.0533 175.608 35.5524C175.641 34.0762 175.154 33.2679 173.91 32.9247C173.339 32.7696 172.752 32.6853 172.161 32.6737C170.456 32.622 168.747 32.6442 166.997 32.6442V32.6516Z"
		fill="#EA5F00"></path>
	<path
		d="M250.923 54.4641C248.778 54.4641 246.357 54.4641 244.316 54.4641C244.147 54.2944 240.796 49.4154 239.079 47.0497C239.02 46.9685 238.943 46.8983 238.843 46.7876C238.212 47.4039 237.585 47.9944 236.998 48.6329C236.898 48.8151 236.859 49.0248 236.887 49.2308C236.887 50.7476 236.887 52.2645 236.887 53.7814V54.4457H231.683V27.4487H236.931V41.3144C237.633 40.4988 238.231 39.8123 238.821 39.1C240.194 37.4798 242.763 34.3982 243.445 33.66C245.8 33.66 248.454 33.66 250.941 33.66C250.376 34.3096 249.509 35.2581 249 35.8301C247.031 38.0642 245.054 40.2946 243.069 42.5213C242.993 42.58 242.931 42.6546 242.887 42.7398C242.842 42.825 242.817 42.9189 242.813 43.0148C242.809 43.1107 242.826 43.2063 242.862 43.2951C242.899 43.3839 242.954 43.4636 243.025 43.5288C245.567 46.9943 248.077 50.4856 250.594 53.9696C250.683 54.0951 250.771 54.2279 250.923 54.4641Z"
		fill="#EA5F00"></path>
	<path
		d="M128.552 36.2026V33.5527H133.693C133.693 39.8859 133.693 48.1602 133.693 54.4897C132.977 54.4897 128.67 54.5266 128.571 54.4897V51.766C128.36 51.9505 128.231 52.0539 128.113 52.1683C126.209 53.973 123.92 54.5525 121.363 54.3015C119.546 54.1429 117.814 53.458 116.381 52.3307C114.269 50.6736 113.136 48.4444 112.764 45.8315C112.391 43.6164 112.669 41.3406 113.565 39.2806C115.144 35.804 117.879 33.9624 121.684 33.6672C122.947 33.532 124.224 33.6905 125.415 34.1303C126.607 34.5701 127.68 35.2794 128.552 36.2026ZM117.768 44.1301C117.816 44.6652 117.892 45.1974 117.997 45.7244C118.997 49.7325 123.78 50.5223 126.485 48.581C127.792 47.6473 128.331 46.2633 128.526 44.7317C129.065 40.421 125.644 37.6641 121.747 38.6532C119.326 39.2474 117.82 41.4396 117.768 44.1301Z"
		fill="#EA5F00"></path>
	<path
		d="M204.646 54.4905H199.612V51.7447C199.394 51.9366 199.268 52.0363 199.15 52.1507C197.405 53.8152 195.305 54.4389 192.932 54.3023C190.659 54.2133 188.497 53.2942 186.857 51.7189C185.248 50.1702 184.232 48.1071 183.985 45.8877C183.698 43.7139 183.827 41.5697 184.724 39.5361C186.299 35.9784 189.075 34.1256 192.943 33.8747C195.419 33.716 197.589 34.4098 199.353 36.2109C199.392 36.2458 199.436 36.2755 199.482 36.2994C199.482 36.2994 199.512 36.2994 199.578 36.2994V33.5684H204.646V54.4905ZM188.898 44.1937C188.981 44.8294 189.098 45.4602 189.248 46.0833C189.564 47.089 190.19 47.9689 191.037 48.5967C191.883 49.2246 192.907 49.5682 193.961 49.5783C195.607 49.6226 197.109 49.2314 198.25 47.9286C199.012 47.0122 199.469 45.8806 199.556 44.6919C199.995 40.6987 196.932 37.9381 193.109 38.7352C190.592 39.2556 188.971 41.4811 188.898 44.1937V44.1937Z"
		fill="#EA5F00"></path>
	<path
		d="M228.247 54.4165H223.08V53.8334C223.08 51.1835 223.121 48.1608 223.058 45.511C223.025 44.2953 222.885 43.0849 222.638 41.8941C222.102 39.2775 220.209 38.2626 217.718 38.6058C215.504 38.9084 214.142 40.3736 213.817 42.743C213.68 43.7065 213.607 44.678 213.599 45.6512C213.57 48.4229 213.599 51.6669 213.599 54.5087C213.433 54.5346 209.303 54.5087 208.477 54.5087C208.477 48.2346 208.477 40.2223 208.477 33.9408C208.483 33.8172 208.497 33.6939 208.517 33.5718H213.596V36.838L213.758 36.9229C213.771 36.8533 213.795 36.7861 213.828 36.7236C215.083 34.8783 216.913 34.1401 219.047 33.9925C220.863 33.8136 222.688 34.2155 224.261 35.1403C225.259 35.7266 226.109 36.535 226.744 37.5028C227.379 38.4706 227.782 39.5716 227.923 40.7205C228.133 42.3434 228.24 43.9779 228.244 45.6143C228.284 48.386 228.247 51.5451 228.247 54.4165Z"
		fill="#EA5F00"></path>
	<path
		d="M142.451 54.4196H137.495V33.5527H142.451V36.7156L142.554 36.7931C144.119 34.981 145.976 33.7853 148.5 33.8886V39.0333C148.116 39.0452 147.733 39.0785 147.352 39.133C144.714 39.6607 142.983 41.4765 142.687 44.2002C142.51 45.8573 142.503 47.5218 142.466 49.201C142.429 50.8803 142.451 52.744 142.451 54.4196Z"
		fill="#EA5F00"></path>
	<path
		d="M155.952 54.4195H150.814V35.7929C150.977 35.7744 155.335 35.7929 156.003 35.7929C156.003 41.6351 156.003 48.5772 156.003 54.4195C155.992 54.5228 155.97 54.2571 155.952 54.4195Z"
		fill="#EA5F00"></path>
	<path
		d="M156.394 30.6744C156.395 31.0658 156.317 31.4534 156.166 31.8145C156.014 32.1757 155.793 32.5032 155.514 32.7779C155.235 33.0527 154.905 33.2692 154.541 33.4149C154.178 33.5607 153.789 33.6327 153.398 33.6269C153 33.6351 152.606 33.5623 152.237 33.4128C151.869 33.2633 151.535 33.0402 151.256 32.7573C150.977 32.4744 150.759 32.1376 150.614 31.7674C150.47 31.3972 150.402 31.0014 150.416 30.6042C150.415 29.811 150.729 29.0499 151.288 28.488C151.848 27.9261 152.608 27.6094 153.401 27.6074C154.205 27.6181 154.971 27.9471 155.532 28.522C156.093 29.097 156.403 29.871 156.394 30.6744Z"
		fill="#EA5F00"></path>
	<path fill-rule="evenodd" clip-rule="evenodd"
		d="M40.1211 7.33353C33.9368 7.32461 27.8706 9.02703 22.594 12.2523C17.3173 15.4776 13.0359 20.1 10.2237 25.6079C7.41149 31.1158 6.1781 37.2944 6.66004 43.4599C7.14198 49.6254 9.32046 55.5373 12.9544 60.5414C14.401 59.8439 15.9004 59.2615 17.4385 58.7994C13.8196 54.2256 11.6717 48.6625 11.2781 42.8435C10.8845 37.0244 12.2635 31.2228 15.2335 26.2033C18.2035 21.1838 22.6249 17.1822 27.9148 14.7261C33.2047 12.2699 39.1148 11.4746 44.8658 12.4449C50.6169 13.4152 55.9388 16.1055 60.1301 20.1613C64.3214 24.217 67.1851 29.4478 68.3439 35.1638C69.5026 40.8799 68.9018 46.8129 66.6208 52.1806C64.3398 57.5484 60.4856 62.0989 55.5664 65.2322C56.323 65.2322 57.1091 65.2322 57.9284 65.1805C60.5487 65.0403 63.0288 63.8629 65.1067 62.896C70.4101 56.9652 73.6579 49.4879 73.6579 40.8777C73.6584 36.4731 72.7913 32.1115 71.1062 28.042C69.421 23.9725 66.9509 20.2748 63.8367 17.1599C60.7225 14.0451 57.0253 11.5741 52.9562 9.88809C48.8871 8.20208 44.5257 7.33402 40.1211 7.33353V7.33353Z"
		fill="#EA5F00"></path>
	<path fill-rule="evenodd" clip-rule="evenodd"
		d="M61.3935 74.1922C59.6154 74.8093 57.7565 75.1624 55.876 75.2403C48.3729 75.5467 43.0104 73.288 37.8288 71.0737C33.2081 69.125 28.8827 67.2797 23.6125 67.5565C20.4665 67.8451 17.4608 68.9943 14.9247 70.878C14.4434 71.2863 14.1406 71.8664 14.0807 72.4947C14.0209 73.123 14.2088 73.7498 14.6043 74.2416C14.9999 74.7335 15.5719 75.0514 16.1984 75.1276C16.8249 75.2039 17.4564 75.0324 17.9584 74.6499C19.7229 73.3798 21.792 72.5992 23.9557 72.3875C28.0338 72.1882 31.7282 73.7272 35.9724 75.543C40.8034 77.5987 46.2028 79.8943 53.3922 80.1009C54.2669 80.1268 55.1785 80.1009 56.0716 80.0677C58.4229 79.9769 60.7477 79.5366 62.9694 78.7612C63.5515 78.5369 64.0241 78.0959 64.2882 77.5307C64.5522 76.9656 64.5872 76.3201 64.3858 75.7297C64.1844 75.1393 63.7622 74.6498 63.2078 74.3639C62.6533 74.0779 62.0098 74.0177 61.4119 74.1959L61.3935 74.1922Z"
		fill="#2673DD"></path>
	<path fill-rule="evenodd" clip-rule="evenodd"
		d="M69.0814 63.3858C66.7933 64.9728 62.1689 67.6522 56.9024 67.8663C50.1706 68.1504 45.7788 66.224 41.1175 64.1978C36.2127 62.072 31.1307 59.8428 23.4726 60.1602C16.3755 60.4333 10.3746 64.4709 7.43313 66.855C6.91534 67.2705 6.58382 67.8748 6.51149 68.5347C6.43916 69.1946 6.63195 69.8563 7.04746 70.3741C7.46297 70.8919 8.06715 71.2234 8.7271 71.2957C9.38704 71.368 10.0487 71.1753 10.5665 70.7598C13.0392 68.7668 18.0252 65.3862 23.6571 65.1574C30.1785 64.8916 34.5113 66.7738 39.0951 68.7815C43.5829 70.745 48.2035 72.7527 54.8467 72.8929C55.5848 72.8929 56.3229 72.8929 57.1053 72.8449C63.623 72.5977 69.1848 69.3831 71.9232 67.4935C72.4462 67.108 72.7985 66.534 72.9053 65.8932C73.0121 65.2523 72.8651 64.595 72.4955 64.0608C72.1259 63.5265 71.5627 63.1572 70.9253 63.0312C70.2879 62.9052 69.6266 63.0324 69.0814 63.3858V63.3858Z"
		fill="#2673DD"></path>
	<path fill-rule="evenodd" clip-rule="evenodd"
		d="M40.1139 14.2973C35.0447 14.296 30.0824 15.7546 25.8202 18.4987C21.558 21.2429 18.1763 25.1564 16.0793 29.7715C13.9824 34.3867 13.2589 39.5081 13.9954 44.5235C14.7319 49.5389 16.8972 54.236 20.2325 58.0534C21.056 57.9138 21.8863 57.8177 22.72 57.7656C31.1014 57.2563 36.9067 59.6109 41.9998 61.7219L42.0662 61.7478C44.9782 62.9398 47.7904 64.0913 51.0603 64.7003C56.5469 62.2002 61.0125 57.8976 63.7148 52.5078C66.4171 47.118 67.1933 40.9656 65.9143 35.0735C64.6353 29.1814 61.3782 23.9046 56.6845 20.1202C51.9908 16.3358 46.1432 14.2718 40.1139 14.2715V14.2973ZM52.662 51.6908H47.9417V36.8729L47.831 36.8397C47.6539 37.146 47.4619 37.4487 47.2996 37.7587C45.6535 40.7702 42.3763 47.1476 42.3763 47.1476H37.9475C37.9475 47.1476 34.3934 40.4085 32.6072 37.1423C32.5845 37.0945 32.5526 37.0517 32.5133 37.0162C32.4741 36.9808 32.4282 36.9534 32.3783 36.9357V51.6982H27.5805V26.971H32.2418C34.744 31.5842 37.4714 36.5887 39.9921 41.1983C40.0397 41.2749 40.0914 41.3489 40.1471 41.4198C40.3649 41.0507 40.5715 40.6817 40.7598 40.3532C42.8511 36.51 44.9425 32.6668 47.0338 28.8237C47.3254 28.2922 47.9196 27.0521 47.9196 27.0521C47.9196 27.0521 52.6288 27.0226 52.6842 27.0521L52.662 51.6908Z"
		fill="#EA5F00"></path>
</svg>